<svg xmlns="http://www.w3.org/2000/svg" xmlns:xlink="http://www.w3.org/1999/xlink" width="600" zoomAndPan="magnify" viewBox="0 0 450 449.999984" height="600" preserveAspectRatio="xMidYMid meet" version="1.0"><defs><clipPath id="b7f3577972"><path d="M 20.046875 380 L 329 380 L 329 448 L 20.046875 448 Z M 20.046875 380 " clip-rule="nonzero"/></clipPath></defs><g clip-path="url(#b7f3577972)"><path fill="#ffffff" d="M 305.949219 395.246094 C 305.949219 388.671875 305.949219 385.339844 305.949219 380.960938 L 20.226562 380.960938 C 20.226562 417.722656 50.136719 447.628906 86.894531 447.628906 L 328.863281 447.628906 C 314.78125 434.574219 305.949219 415.921875 305.949219 395.246094 Z M 305.949219 395.246094 " fill-opacity="1" fill-rule="nonzero"/></g><path fill="#ffffff" d="M 115.46875 171.433594 C 162.730469 171.433594 201.183594 132.980469 201.183594 85.714844 C 201.183594 38.453125 162.730469 0 115.46875 0 C 68.203125 0 29.75 38.453125 29.75 85.714844 C 29.75 132.980469 68.203125 171.433594 115.46875 171.433594 Z M 115.46875 95.242188 C 99.714844 95.242188 86.894531 82.421875 86.894531 66.667969 C 86.894531 54.253906 94.859375 43.667969 105.945312 39.734375 L 105.945312 28.570312 C 105.945312 23.3125 110.210938 19.046875 115.46875 19.046875 C 120.726562 19.046875 124.992188 23.3125 124.992188 28.570312 L 124.992188 38.097656 L 134.515625 38.097656 C 139.777344 38.097656 144.039062 42.359375 144.039062 47.621094 C 144.039062 52.878906 139.777344 57.144531 134.515625 57.144531 L 115.46875 57.144531 C 110.21875 57.144531 105.945312 61.417969 105.945312 66.667969 C 105.945312 71.917969 110.21875 76.191406 115.46875 76.191406 C 131.222656 76.191406 144.039062 89.007812 144.039062 104.765625 C 144.039062 117.179688 136.078125 127.765625 124.992188 131.699219 L 124.992188 142.859375 C 124.992188 148.121094 120.726562 152.382812 115.46875 152.382812 C 110.210938 152.382812 105.945312 148.121094 105.945312 142.859375 L 105.945312 133.335938 L 96.421875 133.335938 C 91.160156 133.335938 86.894531 129.074219 86.894531 123.8125 C 86.894531 118.550781 91.160156 114.289062 96.421875 114.289062 L 115.46875 114.289062 C 120.71875 114.289062 124.992188 110.015625 124.992188 104.765625 C 124.992188 99.511719 120.71875 95.242188 115.46875 95.242188 Z M 115.46875 95.242188 " fill-opacity="1" fill-rule="nonzero"/><path fill="#ffffff" d="M 267.851562 47.621094 L 382.140625 47.621094 L 382.140625 76.191406 L 267.851562 76.191406 Z M 267.851562 47.621094 " fill-opacity="1" fill-rule="nonzero"/><path fill="#ffffff" d="M 175.632812 0 C 202.585938 18.976562 220.230469 50.324219 220.230469 85.714844 C 220.230469 150.964844 160.890625 200.632812 96.417969 188.742188 L 96.417969 361.914062 L 315.472656 361.914062 C 320.730469 361.914062 324.996094 366.175781 324.996094 371.4375 L 324.996094 394.277344 C 324.996094 422.15625 346.1875 445.101562 372.929688 447.425781 C 403.761719 450.035156 429.761719 425.320312 429.761719 395.246094 L 429.761719 0 Z M 391.664062 333.339844 L 134.515625 333.339844 C 129.257812 333.339844 124.992188 329.078125 124.992188 323.816406 C 124.992188 318.558594 129.257812 314.292969 134.515625 314.292969 L 391.664062 314.292969 C 396.925781 314.292969 401.191406 318.558594 401.191406 323.816406 C 401.191406 329.078125 396.925781 333.339844 391.664062 333.339844 Z M 391.664062 285.722656 L 134.515625 285.722656 C 129.257812 285.722656 124.992188 281.457031 124.992188 276.199219 C 124.992188 270.9375 129.257812 266.671875 134.515625 266.671875 L 391.664062 266.671875 C 396.925781 266.671875 401.191406 270.9375 401.191406 276.199219 C 401.191406 281.457031 396.925781 285.722656 391.664062 285.722656 Z M 391.664062 238.101562 L 134.515625 238.101562 C 129.257812 238.101562 124.992188 233.835938 124.992188 228.578125 C 124.992188 223.316406 129.257812 219.054688 134.515625 219.054688 L 391.664062 219.054688 C 396.925781 219.054688 401.191406 223.316406 401.191406 228.578125 C 401.191406 233.835938 396.925781 238.101562 391.664062 238.101562 Z M 391.664062 190.480469 L 220.230469 190.480469 C 214.972656 190.480469 210.707031 186.214844 210.707031 180.957031 C 210.707031 175.695312 214.972656 171.433594 220.230469 171.433594 L 391.664062 171.433594 C 396.925781 171.433594 401.1875 175.695312 401.1875 180.957031 C 401.1875 186.214844 396.925781 190.480469 391.664062 190.480469 Z M 391.664062 142.859375 L 258.328125 142.859375 C 253.070312 142.859375 248.804688 138.597656 248.804688 133.335938 C 248.804688 128.078125 253.070312 123.8125 258.328125 123.8125 L 391.664062 123.8125 C 396.925781 123.8125 401.191406 128.078125 401.191406 133.335938 C 401.191406 138.597656 396.925781 142.859375 391.664062 142.859375 Z M 401.191406 85.714844 C 401.191406 90.976562 396.925781 95.242188 391.664062 95.242188 L 258.328125 95.242188 C 253.070312 95.242188 248.804688 90.976562 248.804688 85.714844 L 248.804688 38.097656 C 248.804688 32.835938 253.070312 28.570312 258.328125 28.570312 L 391.664062 28.570312 C 396.925781 28.570312 401.191406 32.835938 401.191406 38.097656 Z M 401.191406 85.714844 " fill-opacity="1" fill-rule="nonzero"/></svg>