<svg xmlns="http://www.w3.org/2000/svg" xmlns:xlink="http://www.w3.org/1999/xlink" width="600" zoomAndPan="magnify" viewBox="0 0 450 449.999984" height="600" preserveAspectRatio="xMidYMid meet" version="1.0"><path fill="#ffffff" d="M 121.992188 409.21875 C 120.9375 408.515625 119.882812 408.164062 119.179688 407.460938 C 116.015625 405.351562 111.445312 406.40625 109.6875 409.921875 C 107.578125 413.085938 108.632812 417.65625 112.148438 419.414062 C 113.203125 420.117188 114.257812 420.820312 115.3125 421.171875 C 116.367188 421.875 117.773438 422.226562 118.828125 422.226562 C 121.289062 422.226562 123.75 420.820312 124.804688 418.710938 C 126.5625 415.546875 125.507812 411.328125 121.992188 409.21875 Z M 121.992188 409.21875 " fill-opacity="1" fill-rule="nonzero"/><path fill="#ffffff" d="M 53.789062 344.179688 C 51.679688 341.015625 47.460938 339.960938 43.945312 342.070312 C 40.78125 344.179688 39.726562 348.398438 41.835938 351.914062 C 42.539062 352.96875 43.242188 354.023438 43.945312 355.078125 C 45.351562 357.1875 47.460938 358.242188 49.921875 358.242188 C 51.328125 358.242188 52.734375 357.890625 53.789062 357.1875 C 56.953125 355.078125 58.007812 350.507812 55.546875 347.34375 C 55.195312 345.9375 54.492188 345.234375 53.789062 344.179688 Z M 53.789062 344.179688 " fill-opacity="1" fill-rule="nonzero"/><path fill="#ffffff" d="M 72.421875 368.4375 C 69.960938 365.625 65.390625 365.273438 62.578125 367.734375 C 59.765625 370.195312 59.414062 374.765625 61.875 377.578125 C 62.578125 378.632812 63.632812 379.335938 64.335938 380.390625 C 65.742188 381.796875 67.5 382.5 69.609375 382.5 C 71.367188 382.5 73.125 381.796875 74.53125 380.742188 C 77.34375 378.28125 77.695312 373.710938 74.882812 370.898438 C 73.828125 370.195312 73.125 369.492188 72.421875 368.4375 Z M 72.421875 368.4375 " fill-opacity="1" fill-rule="nonzero"/><path fill="#ffffff" d="M 97.03125 391.992188 C 95.976562 391.289062 95.273438 390.585938 94.570312 389.882812 C 91.757812 387.421875 87.1875 387.773438 84.726562 390.9375 C 82.265625 393.75 82.617188 398.320312 85.78125 400.78125 C 86.835938 401.484375 87.539062 402.1875 88.59375 403.242188 C 90 404.296875 91.40625 404.648438 93.164062 404.648438 C 95.273438 404.648438 97.382812 403.59375 98.789062 402.1875 C 100.546875 398.671875 100.195312 394.453125 97.03125 391.992188 Z M 97.03125 391.992188 " fill-opacity="1" fill-rule="nonzero"/><path fill="#ffffff" d="M 94.921875 74.179688 C 96.328125 74.179688 98.085938 73.828125 99.140625 72.773438 C 100.195312 72.070312 100.898438 71.367188 101.953125 70.664062 C 105.117188 68.203125 105.820312 63.984375 103.359375 60.820312 C 100.898438 57.65625 96.679688 56.953125 93.515625 59.414062 C 92.460938 60.117188 91.757812 60.820312 90.703125 61.523438 C 87.539062 63.984375 87.1875 68.203125 89.648438 71.367188 C 91.054688 73.125 92.8125 74.179688 94.921875 74.179688 Z M 94.921875 74.179688 " fill-opacity="1" fill-rule="nonzero"/><path fill="#ffffff" d="M 71.71875 95.273438 C 73.476562 95.273438 75.585938 94.570312 76.992188 93.164062 C 77.695312 92.460938 78.398438 91.40625 79.453125 90.703125 C 82.265625 87.890625 82.265625 83.320312 79.453125 80.859375 C 76.640625 78.046875 72.070312 78.046875 69.609375 80.859375 C 68.90625 81.5625 67.851562 82.617188 67.148438 83.320312 C 64.335938 86.132812 64.6875 90.703125 67.5 93.164062 C 68.203125 94.570312 69.960938 95.273438 71.71875 95.273438 Z M 71.71875 95.273438 " fill-opacity="1" fill-rule="nonzero"/><path fill="#ffffff" d="M 47.8125 118.476562 C 48.867188 119.179688 50.273438 119.882812 51.679688 119.882812 C 53.789062 119.882812 56.25 118.828125 57.304688 116.71875 C 58.007812 115.664062 58.710938 114.960938 59.414062 113.90625 C 61.523438 110.742188 60.820312 106.523438 57.65625 104.0625 C 54.492188 101.953125 50.273438 102.65625 47.8125 105.820312 C 47.109375 106.875 46.40625 107.929688 45.703125 108.632812 C 43.59375 112.148438 44.648438 116.367188 47.8125 118.476562 Z M 47.8125 118.476562 " fill-opacity="1" fill-rule="nonzero"/><path fill="#ffffff" d="M 396.914062 123.398438 C 398.320312 125.507812 400.429688 126.5625 402.890625 126.5625 C 404.296875 126.5625 405.351562 126.210938 406.757812 125.507812 C 409.921875 123.398438 410.976562 119.179688 408.867188 115.664062 C 408.164062 114.609375 407.460938 113.554688 406.757812 112.5 C 404.648438 109.335938 400.078125 108.28125 396.914062 110.390625 C 393.75 112.5 392.695312 117.070312 394.804688 120.234375 C 395.507812 121.640625 396.210938 122.34375 396.914062 123.398438 Z M 396.914062 123.398438 " fill-opacity="1" fill-rule="nonzero"/><path fill="#ffffff" d="M 329.0625 58.007812 C 330.117188 58.710938 331.171875 59.0625 331.875 59.765625 C 332.929688 60.46875 334.335938 60.820312 335.390625 60.820312 C 337.851562 60.820312 339.960938 59.765625 341.367188 57.65625 C 343.476562 54.492188 342.421875 49.921875 339.257812 47.8125 C 338.203125 47.109375 337.148438 46.40625 336.09375 46.054688 C 332.929688 43.945312 328.359375 45 326.601562 48.515625 C 324.84375 51.679688 325.898438 55.898438 329.0625 58.007812 Z M 329.0625 58.007812 " fill-opacity="1" fill-rule="nonzero"/><path fill="#ffffff" d="M 403.242188 346.640625 C 400.078125 344.53125 395.507812 345.234375 393.398438 348.398438 C 392.695312 349.453125 391.992188 350.15625 391.289062 351.210938 C 389.179688 354.375 389.882812 358.59375 393.046875 361.054688 C 394.453125 362.109375 395.859375 362.460938 397.265625 362.460938 C 399.375 362.460938 401.484375 361.40625 402.890625 359.648438 C 403.59375 358.59375 404.296875 357.539062 405 356.484375 C 407.109375 352.96875 406.40625 348.75 403.242188 346.640625 Z M 403.242188 346.640625 " fill-opacity="1" fill-rule="nonzero"/><path fill="#ffffff" d="M 378.632812 99.140625 C 380.039062 100.898438 381.796875 101.601562 383.90625 101.601562 C 385.664062 101.601562 387.070312 100.898438 388.476562 99.84375 C 391.289062 97.382812 391.640625 92.8125 389.179688 90 C 388.476562 88.945312 387.421875 88.242188 386.71875 87.1875 C 384.257812 84.375 379.6875 84.023438 376.875 86.835938 C 374.0625 89.296875 373.710938 93.867188 376.523438 96.679688 C 376.875 97.382812 377.929688 98.085938 378.632812 99.140625 Z M 378.632812 99.140625 " fill-opacity="1" fill-rule="nonzero"/><path fill="#ffffff" d="M 374.0625 372.304688 C 373.359375 373.007812 372.65625 374.0625 371.601562 374.765625 C 368.789062 377.578125 369.140625 382.148438 371.953125 384.609375 C 373.359375 386.015625 375.117188 386.71875 376.875 386.71875 C 378.632812 386.71875 380.390625 386.015625 381.796875 384.609375 C 382.5 383.90625 383.554688 382.851562 384.257812 381.796875 C 387.070312 378.984375 386.71875 374.414062 383.90625 371.953125 C 381.445312 369.140625 376.875 369.492188 374.0625 372.304688 Z M 374.0625 372.304688 " fill-opacity="1" fill-rule="nonzero"/><path fill="#ffffff" d="M 356.835938 77.695312 C 358.242188 78.75 359.648438 79.453125 361.40625 79.453125 C 363.515625 79.453125 365.273438 78.75 366.679688 76.992188 C 369.140625 74.179688 368.789062 69.609375 365.976562 67.148438 C 364.921875 66.445312 364.21875 65.742188 363.164062 64.6875 C 360 62.226562 355.78125 62.578125 353.320312 65.742188 C 350.859375 68.90625 351.210938 73.125 354.375 75.585938 C 355.078125 75.9375 355.78125 76.992188 356.835938 77.695312 Z M 356.835938 77.695312 " fill-opacity="1" fill-rule="nonzero"/><path fill="#ffffff" d="M 351.914062 393.046875 C 350.859375 393.75 350.15625 394.453125 349.101562 395.15625 C 345.9375 397.617188 345.585938 401.835938 347.695312 405 C 349.101562 406.757812 351.210938 407.8125 353.320312 407.8125 C 354.726562 407.8125 356.484375 407.460938 357.539062 406.40625 C 358.59375 405.703125 359.296875 405 360.351562 404.296875 C 363.515625 401.835938 363.867188 397.617188 361.40625 394.453125 C 359.296875 390.9375 354.726562 390.585938 351.914062 393.046875 Z M 351.914062 393.046875 " fill-opacity="1" fill-rule="nonzero"/><path fill="#ffffff" d="M 121.289062 56.601562 C 122.34375 56.601562 123.75 56.25 124.804688 55.546875 C 125.859375 54.84375 126.914062 54.492188 127.617188 53.789062 C 127.617188 53.789062 127.617188 53.789062 127.96875 53.789062 C 127.265625 49.570312 126.914062 45.351562 126.5625 41.132812 C 124.804688 40.429688 122.695312 40.78125 120.9375 41.484375 C 119.882812 42.1875 118.828125 42.539062 117.773438 43.242188 C 114.257812 45 113.203125 49.570312 114.960938 52.734375 C 116.367188 55.195312 118.828125 56.601562 121.289062 56.601562 Z M 121.289062 56.601562 " fill-opacity="1" fill-rule="nonzero"/><path fill="#ffffff" d="M 183.515625 104.765625 C 186.679688 100.546875 190.546875 97.03125 194.414062 94.21875 C 171.210938 85.429688 154.6875 63.984375 154.6875 38.671875 L 154.6875 7.03125 C 154.6875 3.164062 151.523438 0 147.65625 0 C 143.789062 0 140.625 3.164062 140.625 7.03125 L 140.625 38.671875 C 140.625 67.851562 158.203125 92.8125 183.515625 104.765625 Z M 183.515625 104.765625 " fill-opacity="1" fill-rule="nonzero"/><path fill="#ffffff" d="M 266.484375 104.765625 C 291.796875 92.8125 309.375 67.851562 309.375 38.671875 L 309.375 7.03125 C 309.375 3.164062 306.210938 0 302.34375 0 C 298.476562 0 295.3125 3.164062 295.3125 7.03125 L 295.3125 38.671875 C 295.3125 63.632812 278.789062 85.429688 255.585938 94.21875 C 259.804688 97.382812 263.320312 100.898438 266.484375 104.765625 Z M 266.484375 104.765625 " fill-opacity="1" fill-rule="nonzero"/><path fill="#ffffff" d="M 225 175.78125 C 246.445312 175.78125 263.671875 158.554688 263.671875 137.109375 C 263.671875 115.664062 246.445312 98.4375 225 98.4375 C 203.554688 98.4375 186.328125 115.664062 186.328125 137.109375 C 186.328125 158.554688 203.554688 175.78125 225 175.78125 Z M 225 112.5 C 238.710938 112.5 249.609375 123.398438 249.609375 137.109375 C 249.609375 150.820312 238.710938 161.71875 225 161.71875 C 211.289062 161.71875 200.390625 150.820312 200.390625 137.109375 C 200.390625 123.398438 211.289062 112.5 225 112.5 Z M 225 112.5 " fill-opacity="1" fill-rule="nonzero"/><path fill="#ffffff" d="M 326.601562 409.921875 C 325.546875 410.625 324.492188 410.976562 323.789062 411.679688 L 323.789062 423.984375 C 324.84375 424.6875 326.25 425.039062 327.304688 425.039062 C 328.359375 425.039062 329.765625 424.6875 330.820312 423.984375 C 331.875 423.28125 332.929688 422.929688 333.984375 422.226562 C 337.5 420.117188 338.554688 415.898438 336.445312 412.734375 C 334.335938 409.21875 329.765625 408.164062 326.601562 409.921875 Z M 326.601562 409.921875 " fill-opacity="1" fill-rule="nonzero"/><path fill="#ffffff" d="M 266.484375 345.234375 C 263.320312 349.453125 259.453125 352.96875 255.585938 355.78125 C 278.789062 364.570312 295.3125 386.015625 295.3125 411.328125 L 295.3125 442.96875 C 295.3125 446.835938 298.476562 450 302.34375 450 C 306.210938 450 309.375 446.835938 309.375 442.96875 L 309.375 411.328125 C 309.375 382.148438 291.796875 357.1875 266.484375 345.234375 Z M 266.484375 345.234375 " fill-opacity="1" fill-rule="nonzero"/><path fill="#ffffff" d="M 183.515625 345.234375 C 158.203125 357.1875 140.625 382.148438 140.625 411.328125 L 140.625 442.96875 C 140.625 446.835938 143.789062 450 147.65625 450 C 151.523438 450 154.6875 446.835938 154.6875 442.96875 L 154.6875 411.328125 C 154.6875 386.015625 171.210938 364.570312 194.414062 355.78125 C 190.195312 352.617188 186.679688 349.101562 183.515625 345.234375 Z M 183.515625 345.234375 " fill-opacity="1" fill-rule="nonzero"/><path fill="#ffffff" d="M 225 274.21875 C 203.554688 274.21875 186.328125 291.445312 186.328125 312.890625 C 186.328125 334.335938 203.554688 351.5625 225 351.5625 C 246.445312 351.5625 263.671875 334.335938 263.671875 312.890625 C 263.671875 291.445312 246.445312 274.21875 225 274.21875 Z M 225 337.5 C 211.289062 337.5 200.390625 326.601562 200.390625 312.890625 C 200.390625 299.179688 211.289062 288.28125 225 288.28125 C 238.710938 288.28125 249.609375 299.179688 249.609375 312.890625 C 249.609375 326.601562 238.710938 337.5 225 337.5 Z M 225 337.5 " fill-opacity="1" fill-rule="nonzero"/><path fill="#ffffff" d="M 411.328125 323.4375 C 410.273438 323.4375 409.21875 323.4375 408.164062 323.4375 C 407.8125 324.140625 407.8125 324.492188 407.460938 325.195312 C 405.703125 328.710938 407.109375 332.929688 410.625 334.6875 C 411.679688 335.039062 412.734375 335.390625 413.789062 335.390625 C 416.25 335.390625 418.710938 333.984375 420.117188 331.523438 C 420.820312 330.46875 421.171875 329.414062 421.875 328.359375 C 422.578125 326.953125 422.578125 325.195312 422.226562 323.789062 L 411.328125 323.789062 Z M 411.328125 323.4375 " fill-opacity="1" fill-rule="nonzero"/><path fill="#ffffff" d="M 442.96875 295.3125 L 411.328125 295.3125 C 386.367188 295.3125 364.570312 278.789062 355.78125 255.585938 C 352.96875 259.804688 349.101562 263.320312 345.234375 266.484375 C 357.1875 291.796875 382.148438 309.375 411.328125 309.375 L 442.96875 309.375 C 446.835938 309.375 450 306.210938 450 302.34375 C 450 298.476562 446.835938 295.3125 442.96875 295.3125 Z M 442.96875 295.3125 " fill-opacity="1" fill-rule="nonzero"/><path fill="#ffffff" d="M 355.78125 194.414062 C 364.570312 171.210938 386.015625 154.6875 411.328125 154.6875 L 442.96875 154.6875 C 446.835938 154.6875 450 151.523438 450 147.65625 C 450 143.789062 446.835938 140.625 442.96875 140.625 L 411.328125 140.625 C 382.5 140.625 357.539062 158.203125 345.234375 183.515625 C 349.101562 186.679688 352.617188 190.195312 355.78125 194.414062 Z M 355.78125 194.414062 " fill-opacity="1" fill-rule="nonzero"/><path fill="#ffffff" d="M 312.890625 186.328125 C 291.445312 186.328125 274.21875 203.554688 274.21875 225 C 274.21875 246.445312 291.445312 263.671875 312.890625 263.671875 C 334.335938 263.671875 351.5625 246.445312 351.5625 225 C 351.5625 203.554688 334.335938 186.328125 312.890625 186.328125 Z M 312.890625 249.609375 C 299.179688 249.609375 288.28125 238.710938 288.28125 225 C 288.28125 211.289062 299.179688 200.390625 312.890625 200.390625 C 326.601562 200.390625 337.5 211.289062 337.5 225 C 337.5 238.710938 326.601562 249.609375 312.890625 249.609375 Z M 312.890625 249.609375 " fill-opacity="1" fill-rule="nonzero"/><path fill="#ffffff" d="M 38.671875 323.4375 L 26.367188 323.4375 C 26.71875 324.492188 27.421875 325.546875 27.773438 326.601562 C 29.179688 329.0625 31.640625 330.46875 34.453125 330.46875 C 35.507812 330.46875 36.5625 330.117188 37.617188 329.765625 C 40.078125 328.359375 41.835938 325.898438 41.484375 323.085938 C 40.429688 323.4375 39.726562 323.4375 38.671875 323.4375 Z M 38.671875 323.4375 " fill-opacity="1" fill-rule="nonzero"/><path fill="#ffffff" d="M 7.03125 154.6875 L 38.671875 154.6875 C 63.984375 154.6875 85.429688 171.210938 94.21875 194.414062 C 97.03125 190.195312 100.898438 186.679688 104.765625 183.515625 C 92.8125 158.203125 67.851562 140.625 38.671875 140.625 L 7.03125 140.625 C 3.164062 140.625 0 143.789062 0 147.65625 C 0 151.523438 3.164062 154.6875 7.03125 154.6875 Z M 7.03125 154.6875 " fill-opacity="1" fill-rule="nonzero"/><path fill="#ffffff" d="M 94.21875 255.585938 C 85.429688 278.789062 63.984375 295.3125 38.671875 295.3125 L 7.03125 295.3125 C 3.164062 295.3125 0 298.476562 0 302.34375 C 0 306.210938 3.164062 309.375 7.03125 309.375 L 38.671875 309.375 C 67.5 309.375 92.460938 291.796875 104.765625 266.484375 C 100.898438 263.320312 97.382812 259.804688 94.21875 255.585938 Z M 94.21875 255.585938 " fill-opacity="1" fill-rule="nonzero"/><path fill="#ffffff" d="M 175.78125 225 C 175.78125 203.554688 158.554688 186.328125 137.109375 186.328125 C 115.664062 186.328125 98.4375 203.554688 98.4375 225 C 98.4375 246.445312 115.664062 263.671875 137.109375 263.671875 C 158.554688 263.671875 175.78125 246.445312 175.78125 225 Z M 137.109375 249.609375 C 123.398438 249.609375 112.5 238.710938 112.5 225 C 112.5 211.289062 123.398438 200.390625 137.109375 200.390625 C 150.820312 200.390625 161.71875 211.289062 161.71875 225 C 161.71875 238.710938 150.820312 249.609375 137.109375 249.609375 Z M 137.109375 249.609375 " fill-opacity="1" fill-rule="nonzero"/><path fill="#ffffff" d="M 225 253.125 C 228.867188 253.125 232.03125 249.960938 232.03125 246.09375 L 232.03125 232.03125 L 246.09375 232.03125 C 249.960938 232.03125 253.125 228.867188 253.125 225 C 253.125 221.132812 249.960938 217.96875 246.09375 217.96875 L 232.03125 217.96875 L 232.03125 203.90625 C 232.03125 200.039062 228.867188 196.875 225 196.875 C 221.132812 196.875 217.96875 200.039062 217.96875 203.90625 L 217.96875 217.96875 L 203.90625 217.96875 C 200.039062 217.96875 196.875 221.132812 196.875 225 C 196.875 228.867188 200.039062 232.03125 203.90625 232.03125 L 217.96875 232.03125 L 217.96875 246.09375 C 217.96875 249.960938 221.132812 253.125 225 253.125 Z M 225 253.125 " fill-opacity="1" fill-rule="nonzero"/><path fill="#ffffff" d="M 121.992188 409.21875 C 120.9375 408.515625 119.882812 408.164062 119.179688 407.460938 C 116.015625 405.351562 111.445312 406.40625 109.6875 409.921875 C 107.578125 413.085938 108.632812 417.65625 112.148438 419.414062 C 113.203125 420.117188 114.257812 420.820312 115.3125 421.171875 C 116.367188 421.875 117.773438 422.226562 118.828125 422.226562 C 121.289062 422.226562 123.75 420.820312 124.804688 418.710938 C 126.5625 415.546875 125.507812 411.328125 121.992188 409.21875 Z M 121.992188 409.21875 " fill-opacity="1" fill-rule="nonzero"/><path fill="#ffffff" d="M 53.789062 344.179688 C 51.679688 341.015625 47.460938 339.960938 43.945312 342.070312 C 40.78125 344.179688 39.726562 348.398438 41.835938 351.914062 C 42.539062 352.96875 43.242188 354.023438 43.945312 355.078125 C 45.351562 357.1875 47.460938 358.242188 49.921875 358.242188 C 51.328125 358.242188 52.734375 357.890625 53.789062 357.1875 C 56.953125 355.078125 58.007812 350.507812 55.546875 347.34375 C 55.195312 345.9375 54.492188 345.234375 53.789062 344.179688 Z M 53.789062 344.179688 " fill-opacity="1" fill-rule="nonzero"/><path fill="#ffffff" d="M 72.421875 368.4375 C 69.960938 365.625 65.390625 365.273438 62.578125 367.734375 C 59.765625 370.195312 59.414062 374.765625 61.875 377.578125 C 62.578125 378.632812 63.632812 379.335938 64.335938 380.390625 C 65.742188 381.796875 67.5 382.5 69.609375 382.5 C 71.367188 382.5 73.125 381.796875 74.53125 380.742188 C 77.34375 378.28125 77.695312 373.710938 74.882812 370.898438 C 73.828125 370.195312 73.125 369.492188 72.421875 368.4375 Z M 72.421875 368.4375 " fill-opacity="1" fill-rule="nonzero"/><path fill="#ffffff" d="M 97.03125 391.992188 C 95.976562 391.289062 95.273438 390.585938 94.570312 389.882812 C 91.757812 387.421875 87.1875 387.773438 84.726562 390.9375 C 82.265625 393.75 82.617188 398.320312 85.78125 400.78125 C 86.835938 401.484375 87.539062 402.1875 88.59375 403.242188 C 90 404.296875 91.40625 404.648438 93.164062 404.648438 C 95.273438 404.648438 97.382812 403.59375 98.789062 402.1875 C 100.546875 398.671875 100.195312 394.453125 97.03125 391.992188 Z M 97.03125 391.992188 " fill-opacity="1" fill-rule="nonzero"/><path fill="#ffffff" d="M 94.921875 74.179688 C 96.328125 74.179688 98.085938 73.828125 99.140625 72.773438 C 100.195312 72.070312 100.898438 71.367188 101.953125 70.664062 C 105.117188 68.203125 105.820312 63.984375 103.359375 60.820312 C 100.898438 57.65625 96.679688 56.953125 93.515625 59.414062 C 92.460938 60.117188 91.757812 60.820312 90.703125 61.523438 C 87.539062 63.984375 87.1875 68.203125 89.648438 71.367188 C 91.054688 73.125 92.8125 74.179688 94.921875 74.179688 Z M 94.921875 74.179688 " fill-opacity="1" fill-rule="nonzero"/><path fill="#ffffff" d="M 71.71875 95.273438 C 73.476562 95.273438 75.585938 94.570312 76.992188 93.164062 C 77.695312 92.460938 78.398438 91.40625 79.453125 90.703125 C 82.265625 87.890625 82.265625 83.320312 79.453125 80.859375 C 76.640625 78.046875 72.070312 78.046875 69.609375 80.859375 C 68.90625 81.5625 67.851562 82.617188 67.148438 83.320312 C 64.335938 86.132812 64.6875 90.703125 67.5 93.164062 C 68.203125 94.570312 69.960938 95.273438 71.71875 95.273438 Z M 71.71875 95.273438 " fill-opacity="1" fill-rule="nonzero"/><path fill="#ffffff" d="M 47.8125 118.476562 C 48.867188 119.179688 50.273438 119.882812 51.679688 119.882812 C 53.789062 119.882812 56.25 118.828125 57.304688 116.71875 C 58.007812 115.664062 58.710938 114.960938 59.414062 113.90625 C 61.523438 110.742188 60.820312 106.523438 57.65625 104.0625 C 54.492188 101.953125 50.273438 102.65625 47.8125 105.820312 C 47.109375 106.875 46.40625 107.929688 45.703125 108.632812 C 43.59375 112.148438 44.648438 116.367188 47.8125 118.476562 Z M 47.8125 118.476562 " fill-opacity="1" fill-rule="nonzero"/><path fill="#ffffff" d="M 396.914062 123.398438 C 398.320312 125.507812 400.429688 126.5625 402.890625 126.5625 C 404.296875 126.5625 405.351562 126.210938 406.757812 125.507812 C 409.921875 123.398438 410.976562 119.179688 408.867188 115.664062 C 408.164062 114.609375 407.460938 113.554688 406.757812 112.5 C 404.648438 109.335938 400.078125 108.28125 396.914062 110.390625 C 393.75 112.5 392.695312 117.070312 394.804688 120.234375 C 395.507812 121.640625 396.210938 122.34375 396.914062 123.398438 Z M 396.914062 123.398438 " fill-opacity="1" fill-rule="nonzero"/><path fill="#ffffff" d="M 329.0625 58.007812 C 330.117188 58.710938 331.171875 59.0625 331.875 59.765625 C 332.929688 60.46875 334.335938 60.820312 335.390625 60.820312 C 337.851562 60.820312 339.960938 59.765625 341.367188 57.65625 C 343.476562 54.492188 342.421875 49.921875 339.257812 47.8125 C 338.203125 47.109375 337.148438 46.40625 336.09375 46.054688 C 332.929688 43.945312 328.359375 45 326.601562 48.515625 C 324.84375 51.679688 325.898438 55.898438 329.0625 58.007812 Z M 329.0625 58.007812 " fill-opacity="1" fill-rule="nonzero"/><path fill="#ffffff" d="M 403.242188 346.640625 C 400.078125 344.53125 395.507812 345.234375 393.398438 348.398438 C 392.695312 349.453125 391.992188 350.15625 391.289062 351.210938 C 389.179688 354.375 389.882812 358.59375 393.046875 361.054688 C 394.453125 362.109375 395.859375 362.460938 397.265625 362.460938 C 399.375 362.460938 401.484375 361.40625 402.890625 359.648438 C 403.59375 358.59375 404.296875 357.539062 405 356.484375 C 407.109375 352.96875 406.40625 348.75 403.242188 346.640625 Z M 403.242188 346.640625 " fill-opacity="1" fill-rule="nonzero"/><path fill="#ffffff" d="M 378.632812 99.140625 C 380.039062 100.898438 381.796875 101.601562 383.90625 101.601562 C 385.664062 101.601562 387.070312 100.898438 388.476562 99.84375 C 391.289062 97.382812 391.640625 92.8125 389.179688 90 C 388.476562 88.945312 387.421875 88.242188 386.71875 87.1875 C 384.257812 84.375 379.6875 84.023438 376.875 86.835938 C 374.0625 89.296875 373.710938 93.867188 376.523438 96.679688 C 376.875 97.382812 377.929688 98.085938 378.632812 99.140625 Z M 378.632812 99.140625 " fill-opacity="1" fill-rule="nonzero"/><path fill="#ffffff" d="M 374.0625 372.304688 C 373.359375 373.007812 372.65625 374.0625 371.601562 374.765625 C 368.789062 377.578125 369.140625 382.148438 371.953125 384.609375 C 373.359375 386.015625 375.117188 386.71875 376.875 386.71875 C 378.632812 386.71875 380.390625 386.015625 381.796875 384.609375 C 382.5 383.90625 383.554688 382.851562 384.257812 381.796875 C 387.070312 378.984375 386.71875 374.414062 383.90625 371.953125 C 381.445312 369.140625 376.875 369.492188 374.0625 372.304688 Z M 374.0625 372.304688 " fill-opacity="1" fill-rule="nonzero"/><path fill="#ffffff" d="M 356.835938 77.695312 C 358.242188 78.75 359.648438 79.453125 361.40625 79.453125 C 363.515625 79.453125 365.273438 78.75 366.679688 76.992188 C 369.140625 74.179688 368.789062 69.609375 365.976562 67.148438 C 364.921875 66.445312 364.21875 65.742188 363.164062 64.6875 C 360 62.226562 355.78125 62.578125 353.320312 65.742188 C 350.859375 68.90625 351.210938 73.125 354.375 75.585938 C 355.078125 75.9375 355.78125 76.992188 356.835938 77.695312 Z M 356.835938 77.695312 " fill-opacity="1" fill-rule="nonzero"/><path fill="#ffffff" d="M 351.914062 393.046875 C 350.859375 393.75 350.15625 394.453125 349.101562 395.15625 C 345.9375 397.617188 345.585938 401.835938 347.695312 405 C 349.101562 406.757812 351.210938 407.8125 353.320312 407.8125 C 354.726562 407.8125 356.484375 407.460938 357.539062 406.40625 C 358.59375 405.703125 359.296875 405 360.351562 404.296875 C 363.515625 401.835938 363.867188 397.617188 361.40625 394.453125 C 359.296875 390.9375 354.726562 390.585938 351.914062 393.046875 Z M 351.914062 393.046875 " fill-opacity="1" fill-rule="nonzero"/><path fill="#ffffff" d="M 121.289062 56.601562 C 122.34375 56.601562 123.75 56.25 124.804688 55.546875 C 125.859375 54.84375 126.914062 54.492188 127.617188 53.789062 C 127.617188 53.789062 127.617188 53.789062 127.96875 53.789062 C 127.265625 49.570312 126.914062 45.351562 126.5625 41.132812 C 124.804688 40.429688 122.695312 40.78125 120.9375 41.484375 C 119.882812 42.1875 118.828125 42.539062 117.773438 43.242188 C 114.257812 45 113.203125 49.570312 114.960938 52.734375 C 116.367188 55.195312 118.828125 56.601562 121.289062 56.601562 Z M 121.289062 56.601562 " fill-opacity="1" fill-rule="nonzero"/><path fill="#ffffff" d="M 183.515625 104.765625 C 186.679688 100.546875 190.546875 97.03125 194.414062 94.21875 C 171.210938 85.429688 154.6875 63.984375 154.6875 38.671875 L 154.6875 7.03125 C 154.6875 3.164062 151.523438 0 147.65625 0 C 143.789062 0 140.625 3.164062 140.625 7.03125 L 140.625 38.671875 C 140.625 67.851562 158.203125 92.8125 183.515625 104.765625 Z M 183.515625 104.765625 " fill-opacity="1" fill-rule="nonzero"/><path fill="#ffffff" d="M 266.484375 104.765625 C 291.796875 92.8125 309.375 67.851562 309.375 38.671875 L 309.375 7.03125 C 309.375 3.164062 306.210938 0 302.34375 0 C 298.476562 0 295.3125 3.164062 295.3125 7.03125 L 295.3125 38.671875 C 295.3125 63.632812 278.789062 85.429688 255.585938 94.21875 C 259.804688 97.382812 263.320312 100.898438 266.484375 104.765625 Z M 266.484375 104.765625 " fill-opacity="1" fill-rule="nonzero"/><path fill="#ffffff" d="M 225 175.78125 C 246.445312 175.78125 263.671875 158.554688 263.671875 137.109375 C 263.671875 115.664062 246.445312 98.4375 225 98.4375 C 203.554688 98.4375 186.328125 115.664062 186.328125 137.109375 C 186.328125 158.554688 203.554688 175.78125 225 175.78125 Z M 225 112.5 C 238.710938 112.5 249.609375 123.398438 249.609375 137.109375 C 249.609375 150.820312 238.710938 161.71875 225 161.71875 C 211.289062 161.71875 200.390625 150.820312 200.390625 137.109375 C 200.390625 123.398438 211.289062 112.5 225 112.5 Z M 225 112.5 " fill-opacity="1" fill-rule="nonzero"/><path fill="#ffffff" d="M 326.601562 409.921875 C 325.546875 410.625 324.492188 410.976562 323.789062 411.679688 L 323.789062 423.984375 C 324.84375 424.6875 326.25 425.039062 327.304688 425.039062 C 328.359375 425.039062 329.765625 424.6875 330.820312 423.984375 C 331.875 423.28125 332.929688 422.929688 333.984375 422.226562 C 337.5 420.117188 338.554688 415.898438 336.445312 412.734375 C 334.335938 409.21875 329.765625 408.164062 326.601562 409.921875 Z M 326.601562 409.921875 " fill-opacity="1" fill-rule="nonzero"/><path fill="#ffffff" d="M 266.484375 345.234375 C 263.320312 349.453125 259.453125 352.96875 255.585938 355.78125 C 278.789062 364.570312 295.3125 386.015625 295.3125 411.328125 L 295.3125 442.96875 C 295.3125 446.835938 298.476562 450 302.34375 450 C 306.210938 450 309.375 446.835938 309.375 442.96875 L 309.375 411.328125 C 309.375 382.148438 291.796875 357.1875 266.484375 345.234375 Z M 266.484375 345.234375 " fill-opacity="1" fill-rule="nonzero"/><path fill="#ffffff" d="M 183.515625 345.234375 C 158.203125 357.1875 140.625 382.148438 140.625 411.328125 L 140.625 442.96875 C 140.625 446.835938 143.789062 450 147.65625 450 C 151.523438 450 154.6875 446.835938 154.6875 442.96875 L 154.6875 411.328125 C 154.6875 386.015625 171.210938 364.570312 194.414062 355.78125 C 190.195312 352.617188 186.679688 349.101562 183.515625 345.234375 Z M 183.515625 345.234375 " fill-opacity="1" fill-rule="nonzero"/><path fill="#ffffff" d="M 225 274.21875 C 203.554688 274.21875 186.328125 291.445312 186.328125 312.890625 C 186.328125 334.335938 203.554688 351.5625 225 351.5625 C 246.445312 351.5625 263.671875 334.335938 263.671875 312.890625 C 263.671875 291.445312 246.445312 274.21875 225 274.21875 Z M 225 337.5 C 211.289062 337.5 200.390625 326.601562 200.390625 312.890625 C 200.390625 299.179688 211.289062 288.28125 225 288.28125 C 238.710938 288.28125 249.609375 299.179688 249.609375 312.890625 C 249.609375 326.601562 238.710938 337.5 225 337.5 Z M 225 337.5 " fill-opacity="1" fill-rule="nonzero"/><path fill="#ffffff" d="M 411.328125 323.4375 C 410.273438 323.4375 409.21875 323.4375 408.164062 323.4375 C 407.8125 324.140625 407.8125 324.492188 407.460938 325.195312 C 405.703125 328.710938 407.109375 332.929688 410.625 334.6875 C 411.679688 335.039062 412.734375 335.390625 413.789062 335.390625 C 416.25 335.390625 418.710938 333.984375 420.117188 331.523438 C 420.820312 330.46875 421.171875 329.414062 421.875 328.359375 C 422.578125 326.953125 422.578125 325.195312 422.226562 323.789062 L 411.328125 323.789062 Z M 411.328125 323.4375 " fill-opacity="1" fill-rule="nonzero"/><path fill="#ffffff" d="M 442.96875 295.3125 L 411.328125 295.3125 C 386.367188 295.3125 364.570312 278.789062 355.78125 255.585938 C 352.96875 259.804688 349.101562 263.320312 345.234375 266.484375 C 357.1875 291.796875 382.148438 309.375 411.328125 309.375 L 442.96875 309.375 C 446.835938 309.375 450 306.210938 450 302.34375 C 450 298.476562 446.835938 295.3125 442.96875 295.3125 Z M 442.96875 295.3125 " fill-opacity="1" fill-rule="nonzero"/><path fill="#ffffff" d="M 355.78125 194.414062 C 364.570312 171.210938 386.015625 154.6875 411.328125 154.6875 L 442.96875 154.6875 C 446.835938 154.6875 450 151.523438 450 147.65625 C 450 143.789062 446.835938 140.625 442.96875 140.625 L 411.328125 140.625 C 382.5 140.625 357.539062 158.203125 345.234375 183.515625 C 349.101562 186.679688 352.617188 190.195312 355.78125 194.414062 Z M 355.78125 194.414062 " fill-opacity="1" fill-rule="nonzero"/><path fill="#ffffff" d="M 312.890625 186.328125 C 291.445312 186.328125 274.21875 203.554688 274.21875 225 C 274.21875 246.445312 291.445312 263.671875 312.890625 263.671875 C 334.335938 263.671875 351.5625 246.445312 351.5625 225 C 351.5625 203.554688 334.335938 186.328125 312.890625 186.328125 Z M 312.890625 249.609375 C 299.179688 249.609375 288.28125 238.710938 288.28125 225 C 288.28125 211.289062 299.179688 200.390625 312.890625 200.390625 C 326.601562 200.390625 337.5 211.289062 337.5 225 C 337.5 238.710938 326.601562 249.609375 312.890625 249.609375 Z M 312.890625 249.609375 " fill-opacity="1" fill-rule="nonzero"/><path fill="#ffffff" d="M 38.671875 323.4375 L 26.367188 323.4375 C 26.71875 324.492188 27.421875 325.546875 27.773438 326.601562 C 29.179688 329.0625 31.640625 330.46875 34.453125 330.46875 C 35.507812 330.46875 36.5625 330.117188 37.617188 329.765625 C 40.078125 328.359375 41.835938 325.898438 41.484375 323.085938 C 40.429688 323.4375 39.726562 323.4375 38.671875 323.4375 Z M 38.671875 323.4375 " fill-opacity="1" fill-rule="nonzero"/><path fill="#ffffff" d="M 7.03125 154.6875 L 38.671875 154.6875 C 63.984375 154.6875 85.429688 171.210938 94.21875 194.414062 C 97.03125 190.195312 100.898438 186.679688 104.765625 183.515625 C 92.8125 158.203125 67.851562 140.625 38.671875 140.625 L 7.03125 140.625 C 3.164062 140.625 0 143.789062 0 147.65625 C 0 151.523438 3.164062 154.6875 7.03125 154.6875 Z M 7.03125 154.6875 " fill-opacity="1" fill-rule="nonzero"/><path fill="#ffffff" d="M 94.21875 255.585938 C 85.429688 278.789062 63.984375 295.3125 38.671875 295.3125 L 7.03125 295.3125 C 3.164062 295.3125 0 298.476562 0 302.34375 C 0 306.210938 3.164062 309.375 7.03125 309.375 L 38.671875 309.375 C 67.5 309.375 92.460938 291.796875 104.765625 266.484375 C 100.898438 263.320312 97.382812 259.804688 94.21875 255.585938 Z M 94.21875 255.585938 " fill-opacity="1" fill-rule="nonzero"/><path fill="#ffffff" d="M 175.78125 225 C 175.78125 203.554688 158.554688 186.328125 137.109375 186.328125 C 115.664062 186.328125 98.4375 203.554688 98.4375 225 C 98.4375 246.445312 115.664062 263.671875 137.109375 263.671875 C 158.554688 263.671875 175.78125 246.445312 175.78125 225 Z M 137.109375 249.609375 C 123.398438 249.609375 112.5 238.710938 112.5 225 C 112.5 211.289062 123.398438 200.390625 137.109375 200.390625 C 150.820312 200.390625 161.71875 211.289062 161.71875 225 C 161.71875 238.710938 150.820312 249.609375 137.109375 249.609375 Z M 137.109375 249.609375 " fill-opacity="1" fill-rule="nonzero"/><path fill="#ffffff" d="M 225 253.125 C 228.867188 253.125 232.03125 249.960938 232.03125 246.09375 L 232.03125 232.03125 L 246.09375 232.03125 C 249.960938 232.03125 253.125 228.867188 253.125 225 C 253.125 221.132812 249.960938 217.96875 246.09375 217.96875 L 232.03125 217.96875 L 232.03125 203.90625 C 232.03125 200.039062 228.867188 196.875 225 196.875 C 221.132812 196.875 217.96875 200.039062 217.96875 203.90625 L 217.96875 217.96875 L 203.90625 217.96875 C 200.039062 217.96875 196.875 221.132812 196.875 225 C 196.875 228.867188 200.039062 232.03125 203.90625 232.03125 L 217.96875 232.03125 L 217.96875 246.09375 C 217.96875 249.960938 221.132812 253.125 225 253.125 Z M 225 253.125 " fill-opacity="1" fill-rule="nonzero"/></svg>